# xmcd
#
# Track frame offsets: 
#        150
#        16994
#        33048
#        50704
#        70334
#        85235
#        111275
#        127633
#        147212
#        161876
#        180272
#        195301
#
# Disc length: 3024 seconds
#
# Revision: 1
# Processed by: cddbd v1.5.2PL0 Copyright (c) Steve Scherf et al.
# Submitted via: ExactAudioCopyFreeDBPlugin 1.0
#
DISCID=950bce0c
DTITLE=Bettye LaVette - Thankful N' Thoughtful
DYEAR=2012
DGENRE=Rhythm and Blues
TTITLE0=Everything is Broken
TTITLE1=I'm Not the One
TTITLE2=Dirty Old Town
TTITLE3=The More I Search (The More I Die)
TTITLE4=I'm Tired
TTITLE5=Crazy
TTITLE6=Yesterday is Here
TTITLE7=Thankful N' Thoughtful
TTITLE8=Fair Enough
TTITLE9=Time Will Do the Talking
TTITLE10=Everybody Knows This is Nowhere
TTITLE11=Dirty Old Town (slow version)
EXTD=
EXTT0=
EXTT1=
EXTT2=
EXTT3=
EXTT4=
EXTT5=
EXTT6=
EXTT7=
EXTT8=
EXTT9=
EXTT10=
EXTT11=
PLAYORDER=
